<?xml version="1.0" encoding="UTF-8"?>
<svg xmlns="http://www.w3.org/2000/svg" id="Layer_1" data-name="Layer 1" viewBox="0 0 432 174.11">
  <title>Glyphix_Logo_Color</title>
  <path d="M419.23,100.18l-14.86-16.3,14.86-16.19a7.47,7.47,0,0,0-.33-10.43,7.27,7.27,0,0,0-10.43.34l-14,15.86L380.41,57.6c-2.77-3.22-7.32-3.1-10.43-.34a7.47,7.47,0,0,0-.33,10.43l14.86,16.19-14.86,16.3a7.34,7.34,0,1,0,10.65,10.09l14.2-15.86,14.08,15.86a7.34,7.34,0,1,0,10.65-10.09" style="fill:#7b7d89"></path>
  <path d="M349.36,49.39a8.87,8.87,0,1,0-8.87-8.87,8.9,8.9,0,0,0,8.87,8.87m-0.22,63.22a7.43,7.43,0,0,1-7.43-7.43V63.47a7.43,7.43,0,0,1,14.86,0v41.7a7.43,7.43,0,0,1-7.43,7.43" style="fill:#7b7d89"></path>
  <path d="M304,54.93A24.58,24.58,0,0,0,287.37,61V40.18a7.43,7.43,0,0,0-14.86,0v65a7.43,7.43,0,1,0,14.86,0V83.1c0-6,3.88-14.2,13.42-14.2,8.43,0,12.2,6.77,12.2,12.64v23.51a7.43,7.43,0,1,0,14.86,0V79.77c0-15.63-10.54-24.84-23.84-24.84" style="fill:#7b7d89"></path>
  <path d="M234.58,54.93c-7.76,0-13.09,2.55-16.86,6.43a7.33,7.33,0,0,0-7.32-6.43A7.43,7.43,0,0,0,203,62.36v63.89a7.43,7.43,0,0,0,14.86,0v-20c3.66,3.88,9,6.32,16.63,6.32,13.75,0,26.06-10.09,26.06-28.84s-12.2-28.83-26-28.83M231.8,98.41c-8.32,0-14-5.43-14-14.64s5.66-14.64,14.08-14.64c8.76,0,13.86,7.21,13.86,14.64s-5.21,14.64-14,14.64" style="fill:#7b7d89"></path>
  <path d="M190.77,55.38a7.54,7.54,0,0,0-10,3.44L165.37,90.53l-15.3-31.72a7.47,7.47,0,1,0-13.42,6.55l20.51,42.26L154.5,113a11.42,11.42,0,0,1-7.76,5.77c-6.1,1.78-8.1,6.65-7,9.65,1.22,3.55,4,5.21,8,5.21,13.2,0,18.3-10.09,24.18-22.18L194.2,65.36a7.57,7.57,0,0,0-3.44-10" style="fill:#7b7d89"></path>
  <path d="M119.46,112.6a7.43,7.43,0,0,1-7.43-7.43v-65a7.43,7.43,0,0,1,14.86,0v65a7.43,7.43,0,0,1-7.43,7.43" style="fill:#7b7d89"></path>
  <path d="M90,69.68H63.34a7.43,7.43,0,0,0,0,14.86H73.43c-4.55,7-11.32,13.2-21,13.2-13,0-22.41-9.32-22.41-24.85A24.92,24.92,0,0,1,54.69,47.61c11.2,0,16.3,3.22,22.51,9.76,2.77,3,8,2.77,11.09-.22,2.33-2.22,2.77-7.1,0-10.09C79,37,69.33,32.75,54.69,32.75c-20.85,0-39.48,17.41-39.48,40.48,0,22.85,16.19,39.37,37.15,39.37,11.75,0,21.18-4.21,30.16-15.75v8.21a7.43,7.43,0,1,0,14.86,0V77.11A7.43,7.43,0,0,0,90,69.68" style="fill:#7b7d89"></path>
  <path d="M400.86,147.31a11.54,11.54,0,0,0,16.89,0,13.19,13.19,0,0,0,0-17.85,11.55,11.55,0,0,0-16.89,0,13.09,13.09,0,0,0,0,17.85m15.6-16.63a11.34,11.34,0,0,1,0,15.38,9.72,9.72,0,0,1-14.36,0,10.81,10.81,0,0,1-3-7.72,10.68,10.68,0,0,1,3-7.68,9.63,9.63,0,0,1,7.21-3.13,9.52,9.52,0,0,1,7.17,3.13" style="fill:#60c3ac"></path>
  <path d="M381,150.73a0.82,0.82,0,0,0,.6.25,0.9,0.9,0,0,0,.62-0.25,0.79,0.79,0,0,0,.26-0.6V127a0.79,0.79,0,0,0-.26-0.6,0.88,0.88,0,0,0-.62-0.25,0.81,0.81,0,0,0-.6.25,0.82,0.82,0,0,0-.25.6v23.14a0.82,0.82,0,0,0,.25.6" style="fill:#f4817e"></path>
  <path d="M362.19,147.36a12.44,12.44,0,0,0-8.78-21.22h-4.65a0.85,0.85,0,0,0-.85.85v23.14a0.81,0.81,0,0,0,.23.59,0.89,0.89,0,0,0,.55.26h4.72a12,12,0,0,0,8.78-3.62m-12.55-19.49h3.76A10.43,10.43,0,0,1,361,131a10.66,10.66,0,0,1-7.56,18.21h-3.76V127.87Z" style="fill:#febe10"></path>
  <path d="M314.9,148a10,10,0,0,0,17.14-7.1V127a0.81,0.81,0,0,0-.27-0.61,0.89,0.89,0,0,0-.62-0.25,0.83,0.83,0,0,0-.6.25,0.84,0.84,0,0,0-.25.61v13.94a7.94,7.94,0,0,1-2.43,5.86,8.21,8.21,0,0,1-5.91,2.45,8.12,8.12,0,0,1-5.84-2.45,7.93,7.93,0,0,1-2.43-5.86V127a0.81,0.81,0,0,0-.27-0.61,0.89,0.89,0,0,0-.62-0.25,0.84,0.84,0,0,0-.85.85v13.94a9.67,9.67,0,0,0,2.94,7.1" style="fill:#7b7d89"></path>
  <path d="M288.5,150.73a0.85,0.85,0,0,0,1.46-.6V127.87h7.49a0.79,0.79,0,0,0,.6-0.27,0.88,0.88,0,0,0,.25-0.62,0.85,0.85,0,0,0-.85-0.85H280.76a0.85,0.85,0,0,0-.85.85,0.88,0.88,0,0,0,.25.62,0.79,0.79,0,0,0,.61.27h7.48v22.25a0.82,0.82,0,0,0,.25.6" style="fill:#60c3ac"></path>
  <path d="M254,128.83a8.53,8.53,0,0,1,5.08-1.49,8.26,8.26,0,0,1,2.61.44,12.16,12.16,0,0,1,2.13.9q0.79,0.46,2.08,1.28a0.68,0.68,0,0,0,1.07-.21,0.71,0.71,0,0,0-.21-1.1c-0.9-.59-1.63-1-2.2-1.37a14.24,14.24,0,0,0-2.4-1,9.72,9.72,0,0,0-3.07-.51,10,10,0,0,0-6.05,1.85,5.53,5.53,0,0,0-2.54,4.61q0,4.86,8.41,6.42H259q7.78,1.46,7.78,5.43a4.45,4.45,0,0,1-2.13,3.69,8.92,8.92,0,0,1-5.46,1.63,12.75,12.75,0,0,1-8.16-3.19,0.73,0.73,0,0,0-.57-0.18,0.81,0.81,0,0,0-.53.28,0.72,0.72,0,0,0,.11,1.1,14.79,14.79,0,0,0,9.16,3.58,10.7,10.7,0,0,0,6.44-2,5.89,5.89,0,0,0,2.75-4.92,5.38,5.38,0,0,0-2.73-4.7,16.56,16.56,0,0,0-6.32-2.27h-0.07q-7.1-1.35-7.17-4.9a4.2,4.2,0,0,1,2-3.41" style="fill:#f26524"></path>
</svg>
