<?xml version="1.0" encoding="UTF-8"?>
<!-- Generator: Adobe Illustrator 18.0.0, SVG Export Plug-In . SVG Version: 6.00 Build 0)  -->
<svg xmlns="http://www.w3.org/2000/svg" xmlns:xlink="http://www.w3.org/1999/xlink" id="Layer_1" x="0px" y="0px" viewBox="0 0 1000 1000" xml:space="preserve">
<g>
	<rect x="409.9" y="280" fill="#00A8E1" width="271" height="271"></rect>
	<path fill="#1A5FAB" d="M319,189.1V476h286.9V189.1H319z M492.7,362.7h-132v-132h132V362.7z"></path>
	<g>
		<path fill="#00A8E1" d="M73.5,635.2v122.5H51.9V635.2H73.5z"></path>
		<path fill="#00A8E1" d="M149.2,757.7h-45.7V635.2h45.7c38.5,0,65.1,26.4,65.1,61.1C214.3,731,187.7,757.7,149.2,757.7z     M149.2,654.8H125v83.3h24.2c25.7,0,42.5-17.3,42.5-41.5S174.9,654.8,149.2,654.8z"></path>
		<path fill="#00A8E1" d="M328.3,654.5H259v31.9h61.4v19.2H259v32.9h70.2v19.2h-91.7V635.2h90.8V654.5z"></path>
		<path fill="#00A8E1" d="M471.3,757.7h-22.8l-12.4-29.6h-57.9l-12.6,29.6h-22.1l53.9-123.4h20L471.3,757.7z M407.1,660.1l-21,49    h42.2L407.1,660.1z"></path>
		<path fill="#1A5FAB" d="M486.2,635.2H549c15.4,0,26.2,3.8,33.4,11c4.9,4.9,7.9,11.4,7.9,19.8v0.3c0,14.2-8,22.6-18.9,27.3    c14.9,4.9,24.3,13.3,24.3,29.9v0.4c0,21-17.2,33.8-46.4,33.8h-63.2V635.2z M540.6,684.1c10.3,0,16.1-3.5,16.1-10.7V673    c0-6.7-5.2-10.5-15.4-10.5h-22.1v21.5H540.6z M545.5,730.4c10.3,0,16.3-4,16.3-11.2v-0.3c0-6.7-5.2-11-16.6-11h-25.9v22.6H545.5z"></path>
		<path fill="#1A5FAB" d="M649.4,634.4h32.7l52.2,123.4h-36.4l-8.9-21.9h-47.2l-8.8,21.9h-35.7L649.4,634.4z M679.2,709.4    l-13.7-34.8l-13.8,34.8H679.2z"></path>
		<path fill="#1A5FAB" d="M736.2,739.5l18.9-22.6c12.1,9.6,25.6,14.7,39.7,14.7c9.1,0,14-3.2,14-8.4v-0.3c0-5.1-4-7.9-20.7-11.7    c-26.1-6-46.2-13.3-46.2-38.5v-0.3c0-22.8,18-39.2,47.4-39.2c20.8,0,37.1,5.6,50.4,16.3l-17,24c-11.2-7.9-23.5-12.1-34.3-12.1    c-8.2,0-12.2,3.5-12.2,7.9v0.4c0,5.6,4.2,8,21.2,11.9c28.2,6.1,45.7,15.2,45.7,38.2v0.3c0,25-19.8,39.9-49.5,39.9    C771.9,759.8,751.3,753,736.2,739.5z"></path>
		<path fill="#1A5FAB" d="M859.2,635.2h98.5v28.9h-64.9v18.6h58.8v26.8h-58.8v19.4h65.8v28.9h-99.4V635.2z"></path>
	</g>
</g>
</svg>
