<?xml version="1.0" encoding="UTF-8"?>
<!-- Generator: Adobe Illustrator 22.1.0, SVG Export Plug-In . SVG Version: 6.00 Build 0)  -->
<svg xmlns="http://www.w3.org/2000/svg" xmlns:xlink="http://www.w3.org/1999/xlink" id="Layer_1" x="0px" y="0px" viewBox="0 0 432 174.1" style="enable-background:new 0 0 432 174.1;" xml:space="preserve">
<style type="text/css">
	.st0{fill:#FFFFFF;}
</style>
<title>Glyphix_Logo_Color</title>
<path class="st0" d="M419.2,100.2l-14.9-16.3l14.9-16.2c2.7-3,2.6-7.6-0.3-10.4c-2.9-2.8-7.5-2.7-10.3,0.2c-0.1,0.1-0.1,0.1-0.2,0.2  l-14,15.9l-14.1-15.9c-2.8-3.2-7.3-3.1-10.4-0.3c-2.9,2.8-3.1,7.4-0.3,10.4l14.9,16.2l-14.9,16.3c-2.9,2.8-2.9,7.5-0.1,10.4  c2.8,2.9,7.5,2.9,10.4,0.1c0.1-0.1,0.2-0.2,0.4-0.4l14.2-15.9l14.1,15.9c2.7,3,7.3,3.3,10.4,0.6c3-2.7,3.3-7.3,0.6-10.4  C419.5,100.4,419.4,100.3,419.2,100.2"></path>
<path class="st0" d="M349.4,49.4c4.9,0,8.9-4,8.9-8.9s-4-8.9-8.9-8.9c-4.9,0-8.9,4-8.9,8.9v0C340.5,45.4,344.5,49.4,349.4,49.4   M349.1,112.6c-4.1,0-7.4-3.3-7.4-7.4V63.5c0-4.1,3.3-7.4,7.4-7.4c4.1,0,7.4,3.3,7.4,7.4v41.7C356.6,109.3,353.2,112.6,349.1,112.6"></path>
<path class="st0" d="M304,54.9c-6.1-0.1-12,2.1-16.6,6.1V40.2c0-4.1-3.3-7.4-7.4-7.4c-4.1,0-7.4,3.3-7.4,7.4v65  c0,4.1,3.3,7.4,7.4,7.4s7.4-3.3,7.4-7.4c0,0,0,0,0,0V83.1c0-6,3.9-14.2,13.4-14.2c8.4,0,12.2,6.8,12.2,12.6v23.5  c0,4.1,3.3,7.4,7.4,7.4s7.4-3.3,7.4-7.4c0,0,0,0,0,0V79.8C327.9,64.1,317.3,54.9,304,54.9"></path>
<path class="st0" d="M234.6,54.9c-7.8,0-13.1,2.5-16.9,6.4c-0.5-3.7-3.6-6.5-7.3-6.4c-4.1,0-7.4,3.3-7.4,7.4v63.9  c0,4.1,3.3,7.4,7.4,7.4c4.1,0,7.4-3.3,7.4-7.4v-20c3.7,3.9,9,6.3,16.6,6.3c13.8,0,26.1-10.1,26.1-28.8S248.4,54.9,234.6,54.9   M231.8,98.4c-8.3,0-14-5.4-14-14.6s5.7-14.6,14.1-14.6c8.8,0,13.9,7.2,13.9,14.6S240.5,98.4,231.8,98.4"></path>
<path class="st0" d="M190.8,55.4c-3.7-1.8-8.2-0.2-10,3.4l-15.4,31.7l-15.3-31.7c-1.7-3.8-6.1-5.4-9.9-3.7c-3.8,1.7-5.4,6.1-3.7,9.9  c0.1,0.1,0.1,0.3,0.2,0.4l20.5,42.3l-2.7,5.4c-1.6,3-4.4,5.1-7.8,5.8c-6.1,1.8-8.1,6.7-7,9.7c1.2,3.6,4,5.2,8,5.2  c13.2,0,18.3-10.1,24.2-22.2l22.3-46.1C196,61.6,194.4,57.2,190.8,55.4"></path>
<path class="st0" d="M119.5,112.6c-4.1,0-7.4-3.3-7.4-7.4l0,0v-65c0-4.1,3.3-7.4,7.4-7.4s7.4,3.3,7.4,7.4v65  C126.9,109.3,123.6,112.6,119.5,112.6L119.5,112.6"></path>
<path class="st0" d="M90,69.7H63.3c-4.1,0-7.4,3.3-7.4,7.4s3.3,7.4,7.4,7.4h10.1c-4.6,7-11.3,13.2-21,13.2c-13,0-22.4-9.3-22.4-24.8  c-0.2-13.8,10.8-25.1,24.6-25.3c0,0,0.1,0,0.1,0c11.2,0,16.3,3.2,22.5,9.8c2.8,3,8,2.8,11.1-0.2c2.3-2.2,2.8-7.1,0-10.1  C79,37,69.3,32.8,54.7,32.8c-20.9,0-39.5,17.4-39.5,40.5c0,22.8,16.2,39.4,37.2,39.4c11.8,0,21.2-4.2,30.2-15.8v8.2  c0,4.1,3.3,7.4,7.4,7.4s7.4-3.3,7.4-7.4V77.1C97.4,73,94.1,69.7,90,69.7"></path>
<path class="st0" d="M400.9,147.3c4.3,4.7,11.6,4.9,16.3,0.6c0.2-0.2,0.4-0.4,0.6-0.6c4.6-5,4.6-12.8,0-17.9  c-4.4-4.7-11.7-4.9-16.3-0.6c-0.2,0.2-0.4,0.4-0.6,0.6C396.2,134.5,396.2,142.3,400.9,147.3 M416.5,130.7c4,4.3,4,11,0,15.4  c-3.6,4-9.8,4.2-13.7,0.6c-0.2-0.2-0.4-0.4-0.6-0.6c-2-2.1-3.1-4.9-3-7.7c-0.1-2.9,1-5.6,3-7.7c1.8-2,4.5-3.2,7.2-3.1  C412,127.5,414.6,128.6,416.5,130.7"></path>
<path class="st0" d="M381,150.7c0.2,0.2,0.4,0.3,0.6,0.2c0.2,0,0.5-0.1,0.6-0.2c0.2-0.2,0.3-0.4,0.3-0.6V127c0-0.2-0.1-0.4-0.3-0.6  c-0.2-0.2-0.4-0.3-0.6-0.2c-0.2,0-0.4,0.1-0.6,0.2c-0.2,0.2-0.3,0.4-0.2,0.6v23.1C380.7,150.4,380.8,150.6,381,150.7"></path>
<path class="st0" d="M362.2,147.4c4.8-4.9,4.8-12.7,0-17.6c-2.3-2.3-5.5-3.6-8.7-3.6h-4.6c-0.5,0-0.9,0.4-0.9,0.8c0,0,0,0,0,0v23.1  c0,0.2,0.1,0.4,0.2,0.6c0.1,0.1,0.3,0.2,0.5,0.3h4.7C356.7,151,359.9,149.7,362.2,147.4 M349.6,127.9h3.8c2.9,0,5.6,1.1,7.6,3.1  c4.2,4.2,4.2,10.9,0,15.1c-2,2-4.7,3.1-7.6,3.1h-3.8L349.6,127.9L349.6,127.9z"></path>
<path class="st0" d="M314.9,148c3.9,3.9,10.2,4,14.1,0.1c1.9-1.9,3-4.5,3-7.2V127c0-0.2-0.1-0.5-0.3-0.6c-0.2-0.2-0.4-0.3-0.6-0.2  c-0.2,0-0.4,0.1-0.6,0.2c-0.2,0.2-0.3,0.4-0.2,0.6v13.9c0,2.2-0.8,4.3-2.4,5.9c-1.6,1.6-3.7,2.5-5.9,2.4c-2.2,0-4.3-0.9-5.8-2.4  c-1.6-1.5-2.5-3.7-2.4-5.9V127c0-0.2-0.1-0.5-0.3-0.6c-0.2-0.2-0.4-0.3-0.6-0.2c-0.5,0-0.8,0.4-0.9,0.8c0,0,0,0,0,0v13.9  C311.9,143.6,313,146.2,314.9,148"></path>
<path class="st0" d="M288.5,150.7c0.3,0.3,0.9,0.3,1.2,0c0.2-0.2,0.3-0.4,0.3-0.6v-22.3h7.5c0.2,0,0.4-0.1,0.6-0.3  c0.2-0.2,0.3-0.4,0.2-0.6c0-0.5-0.4-0.8-0.9-0.8l0,0h-16.7c-0.5,0-0.9,0.4-0.9,0.8c0,0,0,0,0,0c0,0.2,0.1,0.5,0.2,0.6  c0.2,0.2,0.4,0.3,0.6,0.3h7.5v22.2C288.2,150.3,288.3,150.6,288.5,150.7"></path>
<path class="st0" d="M254,128.8c1.5-1,3.3-1.5,5.1-1.5c0.9,0,1.8,0.2,2.6,0.4c0.7,0.2,1.5,0.5,2.1,0.9c0.5,0.3,1.2,0.7,2.1,1.3  c0.3,0.3,0.7,0.2,1,0c0,0,0.1-0.1,0.1-0.2c0.3-0.3,0.2-0.7-0.1-1c0,0-0.1-0.1-0.1-0.1c-0.9-0.6-1.6-1-2.2-1.4  c-0.8-0.4-1.6-0.7-2.4-1c-1-0.3-2-0.5-3.1-0.5c-2.2-0.1-4.3,0.6-6.1,1.8c-1.6,1-2.5,2.7-2.5,4.6c0,3.2,2.8,5.4,8.4,6.4h0.1  c5.2,1,7.8,2.8,7.8,5.4c0,1.5-0.8,2.9-2.1,3.7c-1.6,1.1-3.5,1.7-5.5,1.6c-3-0.1-5.9-1.2-8.2-3.2c-0.2-0.1-0.4-0.2-0.6-0.2  c-0.2,0-0.4,0.1-0.5,0.3c-0.3,0.3-0.3,0.7,0,1c0,0,0.1,0.1,0.1,0.1c2.6,2.2,5.8,3.5,9.2,3.6c2.3,0,4.6-0.7,6.4-2  c1.7-1.1,2.7-2.9,2.8-4.9c0-1.9-1-3.7-2.7-4.7c-1.9-1.2-4.1-2-6.3-2.3h-0.1c-4.7-0.9-7.1-2.5-7.2-4.9  C252.2,130.8,252.9,129.5,254,128.8"></path>
</svg>
