<?xml version="1.0" encoding="UTF-8"?>
<!-- Generator: Adobe Illustrator 18.0.0, SVG Export Plug-In . SVG Version: 6.00 Build 0)  -->
<svg xmlns="http://www.w3.org/2000/svg" xmlns:xlink="http://www.w3.org/1999/xlink" id="Layer_1" x="0px" y="0px" viewBox="0 0 1000 1000" xml:space="preserve">
<g>
	<rect x="409.9" y="140" fill="#00A8E1" width="271" height="271"></rect>
	<path fill="#1A5FAB" d="M319,49.1V336h286.9V49.1H319z M492.7,222.7h-132v-132h132V222.7z"></path>
	<g>
		<path fill="#00A8E1" d="M194,501.7V704h-35.5V501.7H194z"></path>
		<path fill="#00A8E1" d="M319,704h-75.4V501.7H319c63.6,0,107.5,43.6,107.5,100.9S382.6,704,319,704z M319,534h-39.9v137.6H319    c42.5,0,70.2-28.6,70.2-68.5C389.2,563.2,361.5,534,319,534z"></path>
		<path fill="#00A8E1" d="M614.9,533.5H500.4v52.6h101.4v31.8H500.4v54.3h115.9V704H464.9V501.7h150V533.5z"></path>
		<path fill="#00A8E1" d="M850.9,704h-37.6l-20.5-48.8h-95.7L676.4,704H640l89-203.7h32.9L850.9,704z M744.9,542.7l-34.7,80.9h69.6    L744.9,542.7z"></path>
	</g>
	<g>
		<path fill="#1A5FAB" d="M153.7,749.8h93c22.8,0,38.9,5.7,49.5,16.3c7.3,7.3,11.7,16.8,11.7,29.3v0.5c0,21-11.9,33.4-28,40.4    c22,7.3,36,19.7,36,44.3v0.5c0,31.1-25.4,50-68.6,50h-93.5V749.8z M234.2,822c15.3,0,23.8-5.2,23.8-15.8v-0.5    c0-9.8-7.8-15.5-22.8-15.5h-32.6V822H234.2z M241.5,890.7c15.3,0,24.1-6,24.1-16.6v-0.5c0-9.8-7.8-16.3-24.6-16.3h-38.3v33.4    H241.5z"></path>
		<path fill="#1A5FAB" d="M395.3,748.5h48.4l77.2,182.6H467l-13.2-32.4h-69.9l-13,32.4h-52.8L395.3,748.5z M439.3,859.6L419.1,808    l-20.5,51.5H439.3z"></path>
		<path fill="#1A5FAB" d="M523.8,904.1l28-33.4c17.9,14.2,37.8,21.8,58.8,21.8c13.5,0,20.7-4.7,20.7-12.4v-0.5    c0-7.5-6-11.7-30.6-17.4c-38.6-8.8-68.4-19.7-68.4-57v-0.5c0-33.7,26.7-58,70.2-58c30.8,0,54.9,8.3,74.6,24.1L652,806.2    c-16.6-11.7-34.7-17.9-50.8-17.9c-12.2,0-18.1,5.2-18.1,11.7v0.5c0,8.3,6.2,11.9,31.3,17.6c41.7,9.1,67.6,22.5,67.6,56.5v0.5    c0,37-29.3,59.1-73.3,59.1C576.6,934.2,546.1,924.1,523.8,904.1z"></path>
		<path fill="#1A5FAB" d="M705.7,749.8h145.8v42.7h-96.1V820h87v39.6h-87v28.7h97.4v42.7H705.7V749.8z"></path>
	</g>
</g>
</svg>
