<?xml version="1.0" encoding="UTF-8"?>
<!-- Generator: Adobe Illustrator 18.0.0, SVG Export Plug-In . SVG Version: 6.00 Build 0)  -->
<svg xmlns="http://www.w3.org/2000/svg" xmlns:xlink="http://www.w3.org/1999/xlink" id="Layer_1" x="0px" y="0px" viewBox="0 0 1000 270" xml:space="preserve">
<g>
	<g>
		<path fill="#FFFFFF" d="M283.6,54.8v92.1h-16.2V54.8H283.6z"></path>
		<path fill="#FFFFFF" d="M340.5,146.9h-34.3V54.8h34.3c28.9,0,48.9,19.9,48.9,45.9C389.4,126.7,369.4,146.9,340.5,146.9z     M340.5,69.5h-18.2v62.6h18.2c19.3,0,32-13,32-31.2S359.8,69.5,340.5,69.5z"></path>
		<path fill="#FFFFFF" d="M475.2,69.3h-52.1v23.9h46.2v14.5h-46.2v24.7h52.8v14.5h-68.9V54.8h68.3V69.3z"></path>
		<path fill="#FFFFFF" d="M582.6,146.9h-17.1l-9.3-22.2h-43.5l-9.5,22.2h-16.6l40.5-92.7h15L582.6,146.9z M534.4,73.5l-15.8,36.8    h31.7L534.4,73.5z"></path>
		<path fill="#FFFFFF" d="M593.8,54.8h47.2c11.6,0,19.7,2.9,25.1,8.3c3.7,3.7,5.9,8.6,5.9,14.9v0.3c0,10.7-6.1,17-14.2,20.5    c11.2,3.7,18.3,10,18.3,22.5v0.3c0,15.8-12.9,25.4-34.9,25.4h-47.5V54.8z M634.7,91.5c7.8,0,12.1-2.6,12.1-8v-0.3    c0-5-3.9-7.9-11.6-7.9h-16.6v16.2H634.7z M638.4,126.4c7.8,0,12.2-3,12.2-8.4v-0.3c0-5-3.9-8.3-12.5-8.3h-19.5v17H638.4z"></path>
		<path fill="#FFFFFF" d="M716.5,54.1h24.6l39.2,92.7H753l-6.7-16.4h-35.5l-6.6,16.4h-26.8L716.5,54.1z M738.9,110.6l-10.3-26.2    l-10.4,26.2H738.9z"></path>
		<path fill="#FFFFFF" d="M781.8,133.2l14.2-17c9.1,7.2,19.2,11,29.9,11c6.8,0,10.5-2.4,10.5-6.3v-0.3c0-3.8-3-5.9-15.5-8.8    c-19.6-4.5-34.7-10-34.7-28.9v-0.3c0-17.1,13.5-29.5,35.6-29.5c15.7,0,27.9,4.2,37.9,12.2l-12.8,18c-8.4-5.9-17.6-9.1-25.8-9.1    c-6.2,0-9.2,2.6-9.2,5.9v0.3c0,4.2,3.2,6.1,15.9,8.9c21.2,4.6,34.3,11.4,34.3,28.7v0.3c0,18.8-14.9,30-37.2,30    C808.6,148.5,793.1,143.3,781.8,133.2z"></path>
		<path fill="#FFFFFF" d="M874.2,54.8h74.1v21.7h-48.8v13.9h44.2v20.1h-44.2v14.6h49.5v21.7h-74.7V54.8z"></path>
	</g>
	<g>
		<polygon fill="#FFFFFF" points="193.7,93.8 221.3,93.8 221.3,209.5 105.6,209.5 105.6,181.9 193.7,181.9   "></polygon>
		<path fill="#FFFFFF" d="M66.8,54.9v122.5h122.5V54.9H66.8z M140.9,129.1H84.6V72.7h56.4V129.1z"></path>
		<rect x="105.6" y="93.8" fill="#FFFFFF" width="31" height="31"></rect>
	</g>
	<g>
		<path fill="#FFFFFF" d="M276.9,202.2h-4.1v7.4h-5.4V185h10c5.8,0,9.4,3.5,9.4,8.5v0.1C286.8,199.2,282.4,202.2,276.9,202.2z     M281.3,193.6c0-2.4-1.7-3.7-4.4-3.7h-4.2v7.5h4.3C279.8,197.4,281.3,195.8,281.3,193.6L281.3,193.6z"></path>
		<path fill="#FFFFFF" d="M302.7,209.9c-7.6,0-13-5.6-13-12.6v-0.1c0-7,5.5-12.7,13.1-12.7c7.6,0,13,5.6,13,12.6v0.1    C315.8,204.2,310.3,209.9,302.7,209.9z M310.1,197.3c0-4.2-3.1-7.7-7.4-7.7c-4.3,0-7.4,3.4-7.4,7.6v0.1c0,4.2,3.1,7.7,7.4,7.7    C307.1,205,310.1,201.5,310.1,197.3L310.1,197.3z"></path>
		<path fill="#FFFFFF" d="M346.1,209.7h-4.7l-5.5-16l-5.5,16h-4.7l-8.4-24.7h5.8l5.1,16.6l5.5-16.7h4.6l5.5,16.7l5.1-16.6h5.6    L346.1,209.7z"></path>
		<path fill="#FFFFFF" d="M358.1,209.5V185h18.5v4.8h-13.1v5H375v4.8h-11.6v5.1h13.3v4.8H358.1z"></path>
		<path fill="#FFFFFF" d="M396.6,209.5l-5.2-7.8h-4.2v7.8h-5.4V185H393c5.8,0,9.2,3,9.2,8.1v0.1c0,4-2.1,6.4-5.3,7.6l6,8.8H396.6z     M396.7,193.4c0-2.3-1.6-3.5-4.2-3.5h-5.4v7h5.5C395.2,196.9,396.7,195.5,396.7,193.4L396.7,193.4z"></path>
		<path fill="#FFFFFF" d="M407.1,209.5V185h18.5v4.8h-13.1v5H424v4.8h-11.6v5.1h13.3v4.8H407.1z"></path>
		<path fill="#FFFFFF" d="M440.4,209.5h-9.6V185h9.6c7.7,0,13,5.3,13,12.2v0.1C453.4,204.2,448.1,209.5,440.4,209.5z M447.8,197.3    c0-4.3-3-7.4-7.4-7.4h-4.2v14.8h4.2C444.8,204.6,447.8,201.7,447.8,197.3L447.8,197.3z"></path>
		<path fill="#FFFFFF" d="M480.4,209.5h-11.7V185h11.4c5,0,8.1,2.5,8.1,6.3v0.1c0,2.8-1.5,4.3-3.2,5.3c2.8,1.1,4.6,2.7,4.6,6v0.1    C489.5,207.3,485.9,209.5,480.4,209.5z M482.8,192.3c0-1.6-1.3-2.5-3.5-2.5H474v5.2h5C481.3,194.9,482.8,194.1,482.8,192.3    L482.8,192.3z M484.2,202.1c0-1.6-1.2-2.7-4-2.7H474v5.4h6.4C482.7,204.8,484.2,203.9,484.2,202.1L484.2,202.1z"></path>
		<path fill="#FFFFFF" d="M504.9,199.7v9.8h-5.4v-9.7l-9.4-14.8h6.3l5.8,9.8l6-9.8h6.1L504.9,199.7z"></path>
		<path fill="#FFFFFF" d="M544,209.5l-7.6-10.4l-2.8,2.9v7.5h-5.4V185h5.4v10.7l9.9-10.7h6.5l-10,10.4l10.4,14.1H544z"></path>
		<path fill="#FFFFFF" d="M553.7,209.5V185h18.5v4.8h-13.1v5h11.6v4.8h-11.6v5.1h13.3v4.8H553.7z"></path>
		<path fill="#FFFFFF" d="M594.6,209.5l-11.9-15.6v15.6h-5.3V185h5l11.5,15.1V185h5.3v24.5H594.6z"></path>
		<path fill="#FFFFFF" d="M615.6,190v19.5h-5.4V190h-7.5v-5h20.3v5H615.6z"></path>
		<path fill="#FFFFFF" d="M646.4,209.9c-3.7,0-7.5-1.3-10.4-3.9l3.2-3.8c2.2,1.8,4.5,3,7.3,3c2.2,0,3.5-0.9,3.5-2.3v-0.1    c0-1.4-0.8-2.1-4.9-3.1c-4.9-1.3-8.1-2.6-8.1-7.5V192c0-4.4,3.6-7.4,8.6-7.4c3.6,0,6.6,1.1,9.1,3.1l-2.8,4.1    c-2.2-1.5-4.3-2.4-6.4-2.4s-3.2,0.9-3.2,2.1v0.1c0,1.6,1,2.1,5.3,3.2c5,1.3,7.8,3.1,7.8,7.4v0.1    C655.4,207.1,651.7,209.9,646.4,209.9z"></path>
		<path fill="#FFFFFF" d="M670.9,190v19.5h-5.4V190h-7.5v-5h20.3v5H670.9z"></path>
		<path fill="#FFFFFF" d="M697.4,209.5l-2.2-5.5h-10.4l-2.2,5.5h-5.5l10.5-24.7h5l10.5,24.7H697.4z M690,191.3l-3.3,7.9h6.5    L690,191.3z"></path>
		<path fill="#FFFFFF" d="M714.7,190v19.5h-5.4V190h-7.5v-5h20.3v5H714.7z"></path>
		<path fill="#FFFFFF" d="M725.7,209.5V185h18.5v4.8h-13.1v5h11.6v4.8h-11.6v5.1h13.3v4.8H725.7z"></path>
		<path fill="#FFFFFF" d="M768.4,209.9c-3.7,0-7.5-1.3-10.4-3.9l3.2-3.8c2.2,1.8,4.5,3,7.3,3c2.2,0,3.5-0.9,3.5-2.3v-0.1    c0-1.4-0.8-2.1-4.9-3.1c-4.9-1.3-8.1-2.6-8.1-7.5V192c0-4.4,3.6-7.4,8.6-7.4c3.6,0,6.6,1.1,9.1,3.1l-2.8,4.1    c-2.2-1.5-4.3-2.4-6.4-2.4s-3.2,0.9-3.2,2.1v0.1c0,1.6,1,2.1,5.3,3.2c5,1.3,7.8,3.1,7.8,7.4v0.1    C777.4,207.1,773.7,209.9,768.4,209.9z"></path>
		<path fill="#FFFFFF" d="M792.9,190v19.5h-5.4V190H780v-5h20.3v5H792.9z"></path>
		<path fill="#FFFFFF" d="M814.4,209.9c-6.6,0-10.6-3.7-10.6-10.9v-14h5.4v13.9c0,4,2,6.1,5.3,6.1s5.3-2,5.3-5.9v-14h5.4v13.8    C825.1,206.3,821,209.9,814.4,209.9z"></path>
		<path fill="#FFFFFF" d="M840.4,209.5h-9.6V185h9.6c7.7,0,13,5.3,13,12.2v0.1C853.4,204.2,848.1,209.5,840.4,209.5z M847.8,197.3    c0-4.3-3-7.4-7.4-7.4h-4.2v14.8h4.2C844.8,204.6,847.8,201.7,847.8,197.3L847.8,197.3z"></path>
		<path fill="#FFFFFF" d="M858.1,209.5V185h18.5v4.8h-13.1v5H875v4.8h-11.6v5.1h13.3v4.8H858.1z"></path>
		<path fill="#FFFFFF" d="M899,209.5l-11.9-15.6v15.6h-5.3V185h5l11.5,15.1V185h5.3v24.5H899z"></path>
		<path fill="#FFFFFF" d="M920,190v19.5h-5.4V190h-7.5v-5h20.3v5H920z"></path>
		<path fill="#FFFFFF" d="M940.1,209.9c-3.7,0-7.5-1.3-10.4-3.9l3.2-3.8c2.2,1.8,4.5,3,7.3,3c2.2,0,3.5-0.9,3.5-2.3v-0.1    c0-1.4-0.8-2.1-4.9-3.1c-4.9-1.3-8.1-2.6-8.1-7.5V192c0-4.4,3.6-7.4,8.6-7.4c3.6,0,6.6,1.1,9.1,3.1l-2.8,4.1    c-2.2-1.5-4.3-2.4-6.4-2.4s-3.2,0.9-3.2,2.1v0.1c0,1.6,1,2.1,5.3,3.2c5,1.3,7.8,3.1,7.8,7.4v0.1    C949.1,207.1,945.4,209.9,940.1,209.9z"></path>
	</g>
</g>
</svg>
